<?xml version="1.0" encoding="utf-8"?>
<!-- Generator: Adobe Illustrator 23.0.1, SVG Export Plug-In . SVG Version: 6.00 Build 0)  -->
<svg version="1.1" id="Layer_1" xmlns="http://www.w3.org/2000/svg" xmlns:xlink="http://www.w3.org/1999/xlink" x="0px" y="0px"
	 viewBox="0 0 321.8 321.8" style="enable-background:new 0 0 321.8 321.8;" xml:space="preserve">
<style type="text/css">
	.st0{fill:#EDEDED;}
	.st1{fill:#FBD207;stroke:#0D0D0D;stroke-width:6;stroke-miterlimit:10;}
	.st2{fill:#231F20;}
	.st3{fill:none;stroke:#605F5E;stroke-width:15;stroke-miterlimit:10;}
	.st4{fill:#020100;}
	.st5{fill:#191917;}
	.st6{fill:#EEA920;}
</style>
<title>feed-me</title>
<circle class="st0" cx="160.9" cy="156.9" r="153.4"/>
<path class="st1" d="M263,280.1c0.2-15.3,0.1-30-0.6-33.2c-10.2-49.4-53.9-84.8-104.4-84.5c-56.2,0.3-104.2,47.6-105.4,103.8
	c-0.1,3.4,0,6.7,0.3,10C116,318.8,198.3,320.4,263,280.1z"/>
<path class="st2" d="M155.5,296.8h10.8c1.7,0,3,1.4,3,3v6.1c0,1.7-1.4,3-3,3h-10.8c-1.7,0-3-1.4-3-3v-6.1
	C152.4,298.2,153.8,296.8,155.5,296.8z"/>
<circle class="st3" cx="160.9" cy="160.9" r="153.4"/>
<path class="st4" d="M50.1,246.3L50.1,246.3c6.2,0,11.2,5,11.2,11.3l0,0c0,6.2-5,11.2-11.2,11.2l0,0c-6.2,0-11.2-5-11.2-11.2l0,0
	C38.8,251.3,43.9,246.3,50.1,246.3z"/>
<path class="st4" d="M263.1,280L263.1,280c-6.2,0-11.2-5-11.2-11.2l0,0c0-6.2,5-11.2,11.2-11.2l0,0c6.2,0,11.2,5,11.2,11.2l0,0
	C274.3,275,269.3,280,263.1,280z"/>
<circle class="st5" cx="204.9" cy="240.7" r="15.8"/>
<ellipse class="st6" cx="218.3" cy="273.3" rx="15.4" ry="5.1"/>
<ellipse class="st6" cx="110.5" cy="283.3" rx="15.4" ry="5.1"/>
<circle class="st5" cx="110.9" cy="251.6" r="15.8"/>
</svg>
