<svg xmlns="http://www.w3.org/2000/svg" viewBox="0 0 321.76 321.76"><defs><style>.a{fill:#bcabae;}.b{fill:#fbd207;stroke:#0d0d0d;stroke-width:6px;}.b,.d{stroke-miterlimit:10;}.c{fill:#231f20;}.d{fill:none;stroke:#a7999c;stroke-width:15px;}.e{fill:#020100;}.f{fill:#191917;}.g{fill:#eea920;}</style></defs><title>feed-me</title><circle class="a" cx="160.88" cy="156.88" r="153.38"/><path class="b" d="M263,280.06c.22-15.3.07-30-.59-33.18A106,106,0,0,0,158,162.35c-56.21.3-104.21,47.55-105.36,103.75-.07,3.38,0,6.73.27,10A192.76,192.76,0,0,0,263,280.06Z"/><rect class="c" x="152.44" y="296.8" width="16.87" height="12.15" rx="3.02" ry="3.02"/><circle class="d" cx="160.88" cy="160.88" r="153.38"/><rect class="e" x="38.84" y="246.26" width="22.5" height="22.5" rx="11.25" ry="11.25"/><rect class="e" x="251.85" y="257.51" width="22.5" height="22.5" rx="11.25" ry="11.25" transform="translate(526.19 537.53) rotate(-180)"/><circle class="f" cx="204.88" cy="240.66" r="15.81"/><ellipse class="g" cx="218.33" cy="273.26" rx="15.45" ry="5.08"/><ellipse class="g" cx="110.51" cy="283.33" rx="15.45" ry="5.08"/><circle class="f" cx="110.87" cy="251.62" r="15.81"/></svg>