<svg xmlns="http://www.w3.org/2000/svg" viewBox="0 0 321.76 321.76"><defs><style>.a{fill:#bcabae;}.b{fill:#f89d66;stroke:#0d0d0d;stroke-width:6px;}.b,.f{stroke-miterlimit:10;}.c{fill:#0d0d0d;}.d{fill:#fff;}.e{fill:#231f20;}.f{fill:none;stroke:#a7999c;stroke-width:15px;}.g{fill:#020100;}</style></defs><title>feed-me</title><circle class="a" cx="160.88" cy="156.88" r="153.38"/><path class="b" d="M263,280.06c.22-15.3.07-30-.59-33.18A106,106,0,0,0,158,162.35c-56.21.3-104.21,47.55-105.36,103.75-.07,3.38,0,6.73.27,10A192.76,192.76,0,0,0,263,280.06Z"/><circle class="c" cx="109.59" cy="251.34" r="31.46"/><circle class="d" cx="109.54" cy="253.86" r="22.25"/><circle class="c" cx="207.9" cy="249.92" r="29.73"/><circle class="d" cx="208.1" cy="253.53" r="21.02"/><rect class="e" x="152.44" y="296.8" width="16.87" height="12.15" rx="3.02" ry="3.02"/><circle class="f" cx="160.88" cy="160.88" r="153.38"/><rect class="g" x="38.84" y="246.26" width="22.5" height="22.5" rx="11.25" ry="11.25"/><rect class="g" x="251.85" y="257.51" width="22.5" height="22.5" rx="11.25" ry="11.25" transform="translate(526.19 537.53) rotate(-180)"/></svg>