<svg xmlns="http://www.w3.org/2000/svg" xmlns:xlink="http://www.w3.org/1999/xlink" width="1256" height="514" viewBox="0 0 1256 514">
  <defs>
    <clipPath id="clip-path">
      <rect id="Rectangle_5" data-name="Rectangle 5" width="1256" height="514" transform="translate(1362 -650)" fill="none" stroke="#707070" stroke-width="1"/>
    </clipPath>
    <filter id="Path_1" x="-21" y="-20" width="1298" height="527.392" filterUnits="userSpaceOnUse">
      <feOffset dy="3" input="SourceAlpha"/>
      <feGaussianBlur stdDeviation="3" result="blur"/>
      <feFlood flood-color="#605f5e" flood-opacity="0.2"/>
      <feComposite operator="in" in2="blur"/>
      <feComposite in="SourceGraphic"/>
    </filter>
  </defs>
  <g id="Mask_Group_2" data-name="Mask Group 2" transform="translate(-1362 650)" clip-path="url(#clip-path)">
    <g transform="matrix(1, 0, 0, 1, 1362, -650)" filter="url(#Path_1)">
      <path id="Path_1-2" data-name="Path 1" d="M0,0H1280V400s-4.789,34.016-33.281,36.188-31.031-10.742-65.711-10.969-40.023,73.438-146.242,76.023-174.236-77.589-245.891-76.023c-128.164-1.094-85.156,82.734-209.18,84.172-138.8.563-129.078-141.016-251.711-137.109-105.1,2.3-97.812,114.383-197.961,118.883C31.641,489.7,0,400,0,400Z" transform="translate(-12 -14)" fill="#fbd207"/>
    </g>
  </g>
</svg>
