<svg xmlns="http://www.w3.org/2000/svg" viewBox="0 0 302.25 339"><defs><style>.a{fill:none;stroke:#030302;}.a,.c{stroke-miterlimit:10;stroke-width:6px;}.b{fill:#030302;}.c{fill:#f89d66;stroke:#0d0d0d;}.d{fill:#0d0d0d;}.e{fill:#fff;}.f{fill:#231f20;}</style></defs><title>hungry</title><line class="a" x1="94" y1="272" x2="94" y2="334"/><rect class="b" x="59" y="328" width="40" height="11" rx="5.5" ry="5.5"/><line class="a" x1="208.81" y1="272" x2="208.81" y2="334"/><rect class="b" x="203.81" y="328" width="40" height="11" rx="5.5" ry="5.5" transform="translate(447.61 667.01) rotate(-180)"/><line class="a" x1="56.93" y1="155.59" x2="15" y2="210"/><rect class="b" y="202" width="22.5" height="22.5" rx="11.25" ry="11.25"/><line class="a" x1="245.31" y1="147.26" x2="287.25" y2="201.67"/><rect class="b" x="279.75" y="193.67" width="22.5" height="22.5" rx="11.25" ry="11.25" transform="translate(581.99 409.85) rotate(-180)"/><path class="c" d="M259.8,107c0-7.34,8.2-11.64,6.78-18.56-9.95-48.43-63-83.21-114.38-85.39C91.94.53,46.1,53.69,36,103.39c-7,34.56-11.56,83.82-2.66,123.31,4.17,18.51,10.6,36.53,25.12,48.76a70.1,70.1,0,0,0,19.15,10.59c15.69,4.54,160-4.05,160-4.05a20.72,20.72,0,0,0,6.88-1.32,29.31,29.31,0,0,0,15.6-13.4c1-1.85,3.74-10.92,3.87-11.46,1.78-7.41,3.85-17.15,1.32-23.29-2.18-5.27-12.89-13-13.14-18.67-.29-6.54,13.21-16.12,13.14-22.67,0-4.13-8.61-9-8.8-13.14-.23-4.89,7.3-12.81,8.8-17.46,1.75-5.46-10.53-11.47-10.14-17.19.45-6.59,11.87-13.17,12.73-19.72C268.44,119.17,259.8,111.7,259.8,107Z"/><circle class="d" cx="107.32" cy="92.08" r="31.46"/><circle class="e" cx="109.27" cy="94.61" r="22.25"/><circle class="d" cx="195.63" cy="73.66" r="29.73"/><circle class="e" cx="194.83" cy="77.27" r="21.02"/><rect class="f" x="158.12" y="142.55" width="16.87" height="12.15" rx="3.02" ry="3.02"/></svg>