<svg xmlns="http://www.w3.org/2000/svg" viewBox="0 0 340.25 339"><defs><style>.a{fill:none;stroke:#030302;}.a,.c{stroke-miterlimit:10;stroke-width:6px;}.b{fill:#030302;}.c{fill:#fbd207;stroke:#0d0d0d;}.d{fill:#191917;}.e{fill:#eea920;}.f{fill:#231f20;}</style></defs><title>loading</title><line class="a" x1="116" y1="272" x2="116" y2="334"/><rect class="b" x="81" y="328" width="40" height="11" rx="5.5" ry="5.5"/><line class="a" x1="226.81" y1="272" x2="226.81" y2="334"/><rect class="b" x="221.81" y="328" width="40" height="11" rx="5.5" ry="5.5" transform="translate(483.61 667.01) rotate(-180)"/><line class="a" x1="56.93" y1="147.26" x2="15" y2="201.67"/><rect class="b" y="193.67" width="22.5" height="22.5" rx="11.25" ry="11.25"/><line class="a" x1="283.31" y1="155.59" x2="325.25" y2="210"/><rect class="b" x="317.75" y="202" width="22.5" height="22.5" rx="11.25" ry="11.25" transform="translate(657.99 426.51) rotate(-180)"/><path class="c" d="M287.78,103.39C277.65,53.69,231.82.53,171.55,3.09c-.81,0-1.62.08-2.43.13s-1.61-.1-2.42-.13C106.43.53,60.6,53.69,50.46,103.39c-7,34.56-11.55,83.82-2.66,123.31,3,13.13,7.07,26,14.38,36.73a30.22,30.22,0,0,0,1.49,3.85,29.29,29.29,0,0,0,15.61,13.4,23.59,23.59,0,0,0,2.76.8,58.86,58.86,0,0,0,10,4.57c7.23,2.09,41.85,1.39,77,0,35.2,1.36,69.81,2.06,77,0a59.21,59.21,0,0,0,10-4.57,24.17,24.17,0,0,0,2.76-.8,29.37,29.37,0,0,0,15.61-13.4,30.22,30.22,0,0,0,1.49-3.85c7.31-10.74,11.42-23.6,14.37-36.73C299.34,187.21,294.83,138,287.78,103.39Z"/><circle class="d" cx="217.24" cy="94.06" r="15.81"/><ellipse class="e" cx="232.69" cy="123.89" rx="15.45" ry="5.08"/><ellipse class="e" cx="114.42" cy="123.89" rx="15.45" ry="5.08"/><circle class="d" cx="127.62" cy="94.06" r="15.81"/><rect class="f" x="162.69" y="134.77" width="16.87" height="12.15" rx="3.02" ry="3.02"/></svg>