<svg id="Layer_1" data-name="Layer 1" xmlns="http://www.w3.org/2000/svg" viewBox="0 0 321.76 321.76"><defs><style>.cls-1{fill:#fff;}.cls-2{fill:#fbd207;stroke:#0d0d0d;stroke-width:6px;}.cls-2,.cls-4{stroke-miterlimit:10;}.cls-3{fill:#231f20;}.cls-4{fill:none;stroke:#605f5e;stroke-width:15px;}.cls-5{fill:#020100;}.cls-6{fill:#191917;}.cls-7{fill:#eea920;}</style></defs><title>logo</title><circle class="cls-1" cx="160.88" cy="156.88" r="153.38"/><path class="cls-2" d="M263,280.06c.22-15.3.07-30-.59-33.18A106,106,0,0,0,158,162.35c-56.21.3-104.21,47.55-105.36,103.75a97.36,97.36,0,0,0,.27,10A192.76,192.76,0,0,0,263,280.06Z"/><rect class="cls-3" x="152.44" y="296.8" width="16.87" height="12.15" rx="3.02"/><circle class="cls-4" cx="160.88" cy="160.88" r="153.38"/><path class="cls-5" d="M50.09,246.26h0a11.25,11.25,0,0,1,11.25,11.25h0a11.25,11.25,0,0,1-11.25,11.25h0a11.25,11.25,0,0,1-11.25-11.25h0A11.25,11.25,0,0,1,50.09,246.26Z"/><path class="cls-5" d="M263.09,280h0a11.25,11.25,0,0,1-11.25-11.25h0a11.25,11.25,0,0,1,11.25-11.25h0a11.25,11.25,0,0,1,11.25,11.25h0A11.25,11.25,0,0,1,263.09,280Z"/><circle class="cls-6" cx="204.88" cy="240.66" r="15.81"/><ellipse class="cls-7" cx="218.33" cy="273.26" rx="15.45" ry="5.08"/><ellipse class="cls-7" cx="110.51" cy="283.33" rx="15.45" ry="5.08"/><circle class="cls-6" cx="110.87" cy="251.62" r="15.81"/></svg>