<svg xmlns="http://www.w3.org/2000/svg" viewBox="0 0 342.25 339"><defs><style>.a{fill:none;stroke:#030302;}.a,.c{stroke-miterlimit:10;stroke-width:6px;}.b{fill:#030302;}.c{fill:#fbd207;stroke:#0d0d0d;}.d{fill:#191917;}.e{fill:#eea920;}</style></defs><title>yay</title><line class="a" x1="114" y1="272" x2="114" y2="334"/><rect class="b" x="79" y="328" width="40" height="11" rx="5.5" ry="5.5"/><line class="a" x1="228.81" y1="272" x2="228.81" y2="334"/><rect class="b" x="223.81" y="328" width="40" height="11" rx="5.5" ry="5.5" transform="translate(487.61 667.01) rotate(-180)"/><line class="a" x1="56.93" y1="164.5" x2="15" y2="110.09"/><rect class="b" y="95.59" width="22.5" height="22.5" rx="11.25" ry="11.25"/><line class="a" x1="285.31" y1="156.17" x2="327.25" y2="101.76"/><rect class="b" x="319.75" y="87.26" width="22.5" height="22.5" rx="11.25" ry="11.25" transform="translate(661.99 197.02) rotate(-180)"/><path class="c" d="M289.78,103.39C279.65,53.69,233.82.53,173.55,3.09c-.81,0-1.62.08-2.43.13s-1.61-.1-2.42-.13C108.43.53,62.6,53.69,52.46,103.39c-7,34.56-11.55,83.82-2.66,123.31,3,13.13,7.07,26,14.38,36.73a30.22,30.22,0,0,0,1.49,3.85,29.29,29.29,0,0,0,15.61,13.4,23.59,23.59,0,0,0,2.76.8,58.86,58.86,0,0,0,10,4.57c7.23,2.09,41.85,1.39,77,0,35.2,1.36,69.81,2.06,77,0a59.21,59.21,0,0,0,10-4.57,24.17,24.17,0,0,0,2.76-.8,29.37,29.37,0,0,0,15.61-13.4,30.22,30.22,0,0,0,1.49-3.85c7.31-10.74,11.42-23.6,14.37-36.73C301.34,187.21,296.83,138,289.78,103.39Z"/><path class="b" d="M152.76,151.18c7.54,12.53,29.89,13,37.18,0,3.15-5.62-5.49-10.67-8.64-5.05-3.56,6.37-16.17,6.22-19.9,0-3.32-5.51-12-.48-8.64,5.05Z"/><circle class="d" cx="219.24" cy="94.06" r="15.81"/><ellipse class="e" cx="234.69" cy="123.89" rx="15.45" ry="5.08"/><ellipse class="e" cx="116.42" cy="123.89" rx="15.45" ry="5.08"/><circle class="d" cx="129.62" cy="94.06" r="15.81"/></svg>